<?xml version="1.0" encoding="utf-8"?>
<!-- Generator: Adobe Illustrator 16.0.3, SVG Export Plug-In . SVG Version: 6.00 Build 0)  -->
<!DOCTYPE svg PUBLIC "-//W3C//DTD SVG 1.1//EN" "http://www.w3.org/Graphics/SVG/1.1/DTD/svg11.dtd">
<svg version="1.1" id="Layer_1" xmlns="http://www.w3.org/2000/svg" xmlns:xlink="http://www.w3.org/1999/xlink" x="0px" y="0px"
	 width="32px" height="32px" viewBox="0 0 32 32" enable-background="new 0 0 32 32" xml:space="preserve">
<g id="Layer_1_1_">
</g>
<g id="calendar_x5F_alt_x5F_fill">
	<g>
		<path fill="#4E4E50" d="M26,4v2.047c0,2.211-1.789,4-4,4s-4-1.789-4-4V4h-4v2.047c0,2.211-1.789,4-4,4s-4-1.789-4-4V4H0v28h32V4
			H26z M10,26.908H6v-4h4V26.908z M10,18.908H6v-4h4V18.908z M18,26.908h-4v-4h4V26.908z M18,18.916h-4v-4h4V18.916z M22,26.908v-4
			h4L22,26.908z M26,18.908h-4v-4h4V18.908z"/>
		<path fill="#4E4E50" d="M8,6V2c0-1.105,0.895-2,2-2s2,0.895,2,2v4c0,1.105-0.895,2-2,2S8,7.105,8,6z"/>
		<path fill="#4E4E50" d="M20,6V2c0-1.105,0.895-2,2-2s2,0.895,2,2v4c0,1.105-0.895,2-2,2S20,7.105,20,6z"/>
	</g>
</g>
</svg>
